<mxfile host="65bd71144e">
    <diagram id="_5hq3LUBtmrS2jrg6HaG" name="Page-1">
        <mxGraphModel dx="2343" dy="1423" grid="1" gridSize="10" guides="1" tooltips="1" connect="1" arrows="1" fold="1" page="1" pageScale="1" pageWidth="827" pageHeight="1169" math="0" shadow="0">
            <root>
                <mxCell id="0"/>
                <mxCell id="1" parent="0"/>
                <mxCell id="2" value="Data introduction " style="swimlane;fillColor=#1071e5;" parent="1" vertex="1">
                    <mxGeometry x="118" y="80" width="197" height="1050" as="geometry"/>
                </mxCell>
                <mxCell id="88" value="Run the program" style="rounded=1;whiteSpace=wrap;html=1;fillColor=#259B9C;" parent="2" vertex="1">
                    <mxGeometry x="30" y="220" width="120" height="60" as="geometry"/>
                </mxCell>
                <mxCell id="86" value="Initialize the database with the stored data&amp;nbsp;" style="rounded=1;whiteSpace=wrap;html=1;fillColor=#259B9C;" parent="2" vertex="1">
                    <mxGeometry x="30" y="130" width="120" height="60" as="geometry"/>
                </mxCell>
                <mxCell id="89" style="edgeStyle=none;html=1;exitX=0.5;exitY=1;exitDx=0;exitDy=0;entryX=0.5;entryY=0;entryDx=0;entryDy=0;strokeColor=#000000;" parent="2" source="86" target="88" edge="1">
                    <mxGeometry relative="1" as="geometry"/>
                </mxCell>
                <mxCell id="85" value="Access as administrator to the data base" style="rounded=1;whiteSpace=wrap;html=1;fillColor=#0c7c7d;" parent="2" vertex="1">
                    <mxGeometry x="30" y="40" width="120" height="60" as="geometry"/>
                </mxCell>
                <mxCell id="87" style="edgeStyle=none;html=1;exitX=0.5;exitY=1;exitDx=0;exitDy=0;entryX=0.5;entryY=0;entryDx=0;entryDy=0;strokeColor=#000000;" parent="2" source="85" target="86" edge="1">
                    <mxGeometry relative="1" as="geometry"/>
                </mxCell>
                <mxCell id="112" style="edgeStyle=none;html=1;exitX=0;exitY=0.5;exitDx=0;exitDy=0;entryX=0.5;entryY=0;entryDx=0;entryDy=0;strokeColor=#000000;" parent="2" source="104" target="105" edge="1">
                    <mxGeometry relative="1" as="geometry">
                        <Array as="points">
                            <mxPoint x="70" y="560"/>
                        </Array>
                    </mxGeometry>
                </mxCell>
                <mxCell id="104" value="" style="rhombus;whiteSpace=wrap;html=1;labelBackgroundColor=none;fontColor=#FFFFFF;fillColor=none;strokeColor=#0C7C7D;strokeWidth=3;" parent="2" vertex="1">
                    <mxGeometry x="110" y="550" width="20" height="20" as="geometry"/>
                </mxCell>
                <mxCell id="115" style="edgeStyle=none;html=1;exitX=0.5;exitY=1;exitDx=0;exitDy=0;entryX=0.5;entryY=0;entryDx=0;entryDy=0;strokeColor=#000000;" edge="1" parent="2" source="105" target="114">
                    <mxGeometry relative="1" as="geometry"/>
                </mxCell>
                <mxCell id="105" value="Select the table where you want to add data" style="rounded=1;whiteSpace=wrap;html=1;fillColor=#259B9C;" parent="2" vertex="1">
                    <mxGeometry x="10" y="620" width="120" height="60" as="geometry"/>
                </mxCell>
                <mxCell id="119" style="edgeStyle=none;html=1;exitX=0.5;exitY=1;exitDx=0;exitDy=0;entryX=0.5;entryY=0;entryDx=0;entryDy=0;strokeColor=#000000;" edge="1" parent="2" source="114" target="117">
                    <mxGeometry relative="1" as="geometry"/>
                </mxCell>
                <mxCell id="114" value="Use the &quot;INSERT&quot; instruction following the structure of the data in the tabular table" style="rounded=1;whiteSpace=wrap;html=1;fillColor=#259B9C;" vertex="1" parent="2">
                    <mxGeometry x="10" y="720" width="130" height="90" as="geometry"/>
                </mxCell>
                <mxCell id="120" style="edgeStyle=none;html=1;exitX=0.5;exitY=1;exitDx=0;exitDy=0;entryX=0.5;entryY=0;entryDx=0;entryDy=0;strokeColor=#000000;" edge="1" parent="2" source="117" target="118">
                    <mxGeometry relative="1" as="geometry"/>
                </mxCell>
                <mxCell id="117" value="run the instruction with the data" style="rounded=1;whiteSpace=wrap;html=1;fillColor=#259B9C;" vertex="1" parent="2">
                    <mxGeometry x="15" y="840" width="120" height="60" as="geometry"/>
                </mxCell>
                <mxCell id="121" style="edgeStyle=none;html=1;exitX=0.5;exitY=1;exitDx=0;exitDy=0;entryX=0.5;entryY=0;entryDx=0;entryDy=0;strokeColor=#000000;" edge="1" parent="2" source="118" target="5">
                    <mxGeometry relative="1" as="geometry"/>
                </mxCell>
                <mxCell id="118" value="New data are stored in the database" style="rounded=1;whiteSpace=wrap;html=1;fillColor=#259B9C;" vertex="1" parent="2">
                    <mxGeometry x="15" y="930" width="120" height="60" as="geometry"/>
                </mxCell>
                <mxCell id="5" value="" style="ellipse;whiteSpace=wrap;html=1;aspect=fixed;labelBackgroundColor=none;fontColor=#FFFFFF;strokeColor=#000000;strokeWidth=1;fillColor=none;" parent="2" vertex="1">
                    <mxGeometry x="60" y="1010" width="30" height="30" as="geometry"/>
                </mxCell>
                <mxCell id="6" value="" style="ellipse;whiteSpace=wrap;html=1;labelBackgroundColor=none;fontColor=#FFFFFF;strokeColor=#000000;strokeWidth=1;fillColor=#000000;" parent="2" vertex="1">
                    <mxGeometry x="63" y="1012.5" width="24" height="25" as="geometry"/>
                </mxCell>
                <mxCell id="29" value="Edit user data " style="swimlane;fillColor=#1071e5;" parent="1" vertex="1">
                    <mxGeometry x="315" y="80" width="197" height="1050" as="geometry"/>
                </mxCell>
                <mxCell id="102" style="edgeStyle=none;html=1;exitX=1;exitY=0.5;exitDx=0;exitDy=0;entryX=1.002;entryY=0.583;entryDx=0;entryDy=0;entryPerimeter=0;strokeColor=#000000;" parent="29" source="96" target="101" edge="1">
                    <mxGeometry relative="1" as="geometry">
                        <Array as="points">
                            <mxPoint x="173" y="180"/>
                            <mxPoint x="173" y="400"/>
                            <mxPoint x="173" y="539"/>
                        </Array>
                    </mxGeometry>
                </mxCell>
                <mxCell id="96" value="" style="rhombus;whiteSpace=wrap;html=1;labelBackgroundColor=none;fontColor=#FFFFFF;fillColor=none;strokeColor=#0C7C7D;strokeWidth=3;" parent="29" vertex="1">
                    <mxGeometry x="53" y="170" width="20" height="20" as="geometry"/>
                </mxCell>
                <mxCell id="97" value="Game user" style="rounded=1;whiteSpace=wrap;html=1;labelBackgroundColor=none;fontSize=10;fontColor=#000000;strokeColor=#FFFFFF;strokeWidth=1;fillColor=#259B9C;" parent="29" vertex="1">
                    <mxGeometry x="97" y="230" width="50" height="50" as="geometry"/>
                </mxCell>
                <mxCell id="95" style="edgeStyle=none;html=1;exitX=1;exitY=0.5;exitDx=0;exitDy=0;entryX=1;entryY=0.5;entryDx=0;entryDy=0;strokeColor=#000000;" parent="29" source="96" target="97" edge="1">
                    <mxGeometry relative="1" as="geometry">
                        <Array as="points">
                            <mxPoint x="177" y="180"/>
                            <mxPoint x="177" y="255"/>
                        </Array>
                    </mxGeometry>
                </mxCell>
                <mxCell id="98" value="Key inventory" style="rounded=1;whiteSpace=wrap;html=1;labelBackgroundColor=none;fontSize=10;fontColor=#000000;strokeColor=#FFFFFF;strokeWidth=1;fillColor=#259B9C;" parent="29" vertex="1">
                    <mxGeometry x="97" y="300" width="50" height="50" as="geometry"/>
                </mxCell>
                <mxCell id="94" style="edgeStyle=none;html=1;exitX=1;exitY=0.5;exitDx=0;exitDy=0;entryX=1;entryY=0.5;entryDx=0;entryDy=0;strokeColor=#000000;" parent="29" source="96" target="98" edge="1">
                    <mxGeometry relative="1" as="geometry">
                        <Array as="points">
                            <mxPoint x="177" y="180"/>
                            <mxPoint x="177" y="325"/>
                        </Array>
                    </mxGeometry>
                </mxCell>
                <mxCell id="99" value="Save file" style="rounded=1;whiteSpace=wrap;html=1;labelBackgroundColor=none;fontSize=10;fontColor=#000000;strokeColor=#FFFFFF;strokeWidth=1;fillColor=#259B9C;" parent="29" vertex="1">
                    <mxGeometry x="97" y="370" width="50" height="50" as="geometry"/>
                </mxCell>
                <mxCell id="93" style="edgeStyle=none;html=1;exitX=1;exitY=0.5;exitDx=0;exitDy=0;entryX=1;entryY=0.5;entryDx=0;entryDy=0;strokeColor=#000000;" parent="29" source="96" target="99" edge="1">
                    <mxGeometry relative="1" as="geometry">
                        <Array as="points">
                            <mxPoint x="177" y="180"/>
                            <mxPoint x="177" y="210"/>
                            <mxPoint x="177" y="395"/>
                        </Array>
                    </mxGeometry>
                </mxCell>
                <mxCell id="100" value="User score&amp;nbsp;" style="rounded=1;whiteSpace=wrap;html=1;labelBackgroundColor=none;fontSize=10;fontColor=#000000;strokeColor=#FFFFFF;strokeWidth=1;fillColor=#259B9C;" parent="29" vertex="1">
                    <mxGeometry x="97" y="440" width="50" height="50" as="geometry"/>
                </mxCell>
                <mxCell id="92" style="edgeStyle=none;html=1;exitX=1;exitY=0.5;exitDx=0;exitDy=0;entryX=1;entryY=0.5;entryDx=0;entryDy=0;strokeColor=#000000;" parent="29" source="96" target="100" edge="1">
                    <mxGeometry relative="1" as="geometry">
                        <Array as="points">
                            <mxPoint x="173" y="180"/>
                            <mxPoint x="177" y="465"/>
                        </Array>
                    </mxGeometry>
                </mxCell>
                <mxCell id="101" value="Questions" style="rounded=1;whiteSpace=wrap;html=1;labelBackgroundColor=none;fontSize=10;fontColor=#000000;strokeColor=#FFFFFF;strokeWidth=1;fillColor=#259B9C;" parent="29" vertex="1">
                    <mxGeometry x="97" y="510" width="50" height="50" as="geometry"/>
                </mxCell>
                <mxCell id="18" value="Edit&amp;nbsp;" style="text;html=1;strokeColor=none;fillColor=none;align=center;verticalAlign=middle;whiteSpace=wrap;rounded=0;labelBackgroundColor=none;fontColor=#000000;strokeWidth=1;fontSize=10;" parent="29" vertex="1">
                    <mxGeometry x="83" y="180" width="35" height="10" as="geometry"/>
                </mxCell>
                <mxCell id="123" style="edgeStyle=none;html=1;exitX=0.5;exitY=1;exitDx=0;exitDy=0;entryX=0.5;entryY=0;entryDx=0;entryDy=0;strokeColor=#000000;" edge="1" parent="29" source="106" target="122">
                    <mxGeometry relative="1" as="geometry"/>
                </mxCell>
                <mxCell id="106" value="edit existing data&amp;nbsp;" style="rounded=1;whiteSpace=wrap;html=1;fillColor=#259B9C;" parent="29" vertex="1">
                    <mxGeometry x="38.5" y="620" width="120" height="40" as="geometry"/>
                </mxCell>
                <mxCell id="129" style="edgeStyle=none;html=1;exitX=0.5;exitY=1;exitDx=0;exitDy=0;entryX=0.5;entryY=0;entryDx=0;entryDy=0;strokeColor=#000000;" edge="1" parent="29" source="116" target="128">
                    <mxGeometry relative="1" as="geometry"/>
                </mxCell>
                <mxCell id="116" value="Displays a form of the stored data&amp;nbsp;" style="rounded=1;whiteSpace=wrap;html=1;fillColor=#259B9C;" vertex="1" parent="29">
                    <mxGeometry x="38.5" y="850" width="120" height="40" as="geometry"/>
                </mxCell>
                <mxCell id="126" style="edgeStyle=none;html=1;exitX=0.5;exitY=1;exitDx=0;exitDy=0;entryX=0.5;entryY=0;entryDx=0;entryDy=0;strokeColor=#000000;" edge="1" parent="29" source="122" target="124">
                    <mxGeometry relative="1" as="geometry"/>
                </mxCell>
                <mxCell id="122" value="Select the table containing the data to be modified." style="rounded=1;whiteSpace=wrap;html=1;fillColor=#259B9C;" vertex="1" parent="29">
                    <mxGeometry x="24.25" y="690" width="148.5" height="50" as="geometry"/>
                </mxCell>
                <mxCell id="127" style="edgeStyle=none;html=1;exitX=0.5;exitY=1;exitDx=0;exitDy=0;entryX=0.5;entryY=0;entryDx=0;entryDy=0;strokeColor=#000000;" edge="1" parent="29" source="124" target="116">
                    <mxGeometry relative="1" as="geometry"/>
                </mxCell>
                <mxCell id="124" value="The &quot;UPDATE&quot; statement is used&amp;nbsp;" style="rounded=1;whiteSpace=wrap;html=1;fillColor=#259B9C;" vertex="1" parent="29">
                    <mxGeometry x="38.5" y="780" width="120" height="40" as="geometry"/>
                </mxCell>
                <mxCell id="128" value="Modify the data in the form" style="rounded=1;whiteSpace=wrap;html=1;fillColor=#259B9C;" vertex="1" parent="29">
                    <mxGeometry x="22.75" y="920" width="151.5" height="30" as="geometry"/>
                </mxCell>
                <mxCell id="130" value="Send new information" style="rounded=1;whiteSpace=wrap;html=1;fillColor=#259B9C;" vertex="1" parent="29">
                    <mxGeometry x="38.5" y="980" width="120" height="30" as="geometry"/>
                </mxCell>
                <mxCell id="56" value="Delete user " style="swimlane;fillColor=#1071e5;" parent="1" vertex="1">
                    <mxGeometry x="512" y="80" width="197" height="1050" as="geometry"/>
                </mxCell>
                <mxCell id="138" style="edgeStyle=none;html=1;exitX=0.5;exitY=1;exitDx=0;exitDy=0;entryX=0.5;entryY=0;entryDx=0;entryDy=0;strokeColor=#000000;" edge="1" parent="56" source="136" target="137">
                    <mxGeometry relative="1" as="geometry"/>
                </mxCell>
                <mxCell id="136" value="Select a specific table with the command &quot;USE&quot;" style="rounded=1;whiteSpace=wrap;html=1;fillColor=#259B9C;" vertex="1" parent="56">
                    <mxGeometry x="38.5" y="50" width="120" height="60" as="geometry"/>
                </mxCell>
                <mxCell id="141" style="edgeStyle=none;html=1;exitX=0.5;exitY=1;exitDx=0;exitDy=0;entryX=0.5;entryY=0;entryDx=0;entryDy=0;strokeColor=#000000;" edge="1" parent="56" source="137" target="139">
                    <mxGeometry relative="1" as="geometry"/>
                </mxCell>
                <mxCell id="137" value="Identify the user to be deleted&amp;nbsp;" style="rounded=1;whiteSpace=wrap;html=1;fillColor=#259B9C;" vertex="1" parent="56">
                    <mxGeometry x="39" y="150" width="120" height="60" as="geometry"/>
                </mxCell>
                <mxCell id="144" style="edgeStyle=none;html=1;exitX=0.5;exitY=1;exitDx=0;exitDy=0;entryX=0.5;entryY=0;entryDx=0;entryDy=0;strokeColor=#000000;" edge="1" parent="56" source="139" target="143">
                    <mxGeometry relative="1" as="geometry"/>
                </mxCell>
                <mxCell id="139" value="&lt;div&gt;use &quot;DELETE FROM table WHERE condition&quot;.&lt;/div&gt;" style="rounded=1;whiteSpace=wrap;html=1;fillColor=#259B9C;" vertex="1" parent="56">
                    <mxGeometry x="39" y="240" width="120" height="60" as="geometry"/>
                </mxCell>
                <mxCell id="147" style="edgeStyle=none;html=1;exitX=1;exitY=0.5;exitDx=0;exitDy=0;entryX=0.554;entryY=0.017;entryDx=0;entryDy=0;entryPerimeter=0;strokeColor=#000000;" edge="1" parent="56" source="143" target="146">
                    <mxGeometry relative="1" as="geometry">
                        <Array as="points">
                            <mxPoint x="153" y="340"/>
                        </Array>
                    </mxGeometry>
                </mxCell>
                <mxCell id="154" style="edgeStyle=none;html=1;exitX=0;exitY=0.5;exitDx=0;exitDy=0;entryX=0.5;entryY=0;entryDx=0;entryDy=0;strokeColor=#000000;" edge="1" parent="56" source="143" target="153">
                    <mxGeometry relative="1" as="geometry">
                        <Array as="points">
                            <mxPoint x="59" y="340"/>
                        </Array>
                    </mxGeometry>
                </mxCell>
                <mxCell id="143" value="" style="rhombus;whiteSpace=wrap;html=1;labelBackgroundColor=none;fontColor=#FFFFFF;fillColor=none;strokeColor=#0C7C7D;strokeWidth=3;" vertex="1" parent="56">
                    <mxGeometry x="89" y="330" width="20" height="20" as="geometry"/>
                </mxCell>
                <mxCell id="149" style="edgeStyle=none;html=1;exitX=0.5;exitY=1;exitDx=0;exitDy=0;entryX=0.46;entryY=0.005;entryDx=0;entryDy=0;entryPerimeter=0;strokeColor=#000000;" edge="1" parent="56" source="146" target="148">
                    <mxGeometry relative="1" as="geometry"/>
                </mxCell>
                <mxCell id="146" value="Correctly executed" style="rounded=1;whiteSpace=wrap;html=1;fillColor=#259B9C;" vertex="1" parent="56">
                    <mxGeometry x="116" y="380" width="66" height="60" as="geometry"/>
                </mxCell>
                <mxCell id="152" style="edgeStyle=none;html=1;exitX=0.5;exitY=1;exitDx=0;exitDy=0;entryX=0.5;entryY=0;entryDx=0;entryDy=0;strokeColor=#000000;" edge="1" parent="56" source="148" target="150">
                    <mxGeometry relative="1" as="geometry"/>
                </mxCell>
                <mxCell id="148" value="The user has been deleted" style="rounded=1;whiteSpace=wrap;html=1;fillColor=#259B9C;" vertex="1" parent="56">
                    <mxGeometry x="116" y="475" width="72" height="60" as="geometry"/>
                </mxCell>
                <mxCell id="150" value="" style="ellipse;whiteSpace=wrap;html=1;aspect=fixed;labelBackgroundColor=none;fontColor=#FFFFFF;strokeColor=#000000;strokeWidth=1;fillColor=none;" vertex="1" parent="56">
                    <mxGeometry x="137" y="570" width="30" height="30" as="geometry"/>
                </mxCell>
                <mxCell id="151" value="" style="ellipse;whiteSpace=wrap;html=1;labelBackgroundColor=none;fontColor=#FFFFFF;strokeColor=#000000;strokeWidth=1;fillColor=#000000;" vertex="1" parent="56">
                    <mxGeometry x="140" y="572.5" width="24" height="25" as="geometry"/>
                </mxCell>
                <mxCell id="160" style="edgeStyle=none;html=1;exitX=0.5;exitY=1;exitDx=0;exitDy=0;entryX=0.5;entryY=0;entryDx=0;entryDy=0;strokeColor=#000000;" edge="1" parent="56" source="153" target="155">
                    <mxGeometry relative="1" as="geometry"/>
                </mxCell>
                <mxCell id="153" value="Incorrectly executed" style="rounded=1;whiteSpace=wrap;html=1;fillColor=#259B9C;" vertex="1" parent="56">
                    <mxGeometry x="26" y="380" width="66" height="60" as="geometry"/>
                </mxCell>
                <mxCell id="161" style="edgeStyle=none;html=1;exitX=0.5;exitY=1;exitDx=0;exitDy=0;entryX=0.562;entryY=0.012;entryDx=0;entryDy=0;entryPerimeter=0;strokeColor=#000000;" edge="1" parent="56" source="155" target="158">
                    <mxGeometry relative="1" as="geometry">
                        <Array as="points">
                            <mxPoint x="56" y="620"/>
                            <mxPoint x="127" y="620"/>
                        </Array>
                    </mxGeometry>
                </mxCell>
                <mxCell id="155" value="&lt;div&gt;User has not been deleted&lt;/div&gt;" style="rounded=1;whiteSpace=wrap;html=1;fillColor=#259B9C;" vertex="1" parent="56">
                    <mxGeometry x="28" y="522.5" width="64" height="75" as="geometry"/>
                </mxCell>
                <mxCell id="162" style="edgeStyle=none;html=1;exitX=0.5;exitY=1;exitDx=0;exitDy=0;entryX=0.5;entryY=0;entryDx=0;entryDy=0;strokeColor=#000000;" edge="1" parent="56" source="158" target="157">
                    <mxGeometry relative="1" as="geometry"/>
                </mxCell>
                <mxCell id="158" value="&lt;div&gt;Check that the command matches an existing record&amp;nbsp;&lt;/div&gt;" style="rounded=1;whiteSpace=wrap;html=1;fillColor=#259B9C;" vertex="1" parent="56">
                    <mxGeometry x="64.5" y="640" width="111.5" height="60" as="geometry"/>
                </mxCell>
                <mxCell id="163" style="edgeStyle=none;html=1;exitX=0.5;exitY=1;exitDx=0;exitDy=0;entryX=0;entryY=0.5;entryDx=0;entryDy=0;strokeColor=#000000;" edge="1" parent="56" source="157" target="139">
                    <mxGeometry relative="1" as="geometry">
                        <Array as="points">
                            <mxPoint x="121" y="840"/>
                            <mxPoint x="16" y="840"/>
                            <mxPoint x="16" y="270"/>
                        </Array>
                    </mxGeometry>
                </mxCell>
                <mxCell id="157" value="Rerun the operation with the corrected command&amp;nbsp;" style="rounded=1;whiteSpace=wrap;html=1;fillColor=#259B9C;" vertex="1" parent="56">
                    <mxGeometry x="65.75" y="730" width="110.25" height="60" as="geometry"/>
                </mxCell>
                <mxCell id="91" style="edgeStyle=none;html=1;exitX=1;exitY=0.5;exitDx=0;exitDy=0;strokeColor=#000000;entryX=0;entryY=0.5;entryDx=0;entryDy=0;" parent="1" source="88" target="96" edge="1">
                    <mxGeometry relative="1" as="geometry">
                        <mxPoint x="413.57092198581563" y="280.07092198581563" as="targetPoint"/>
                        <Array as="points">
                            <mxPoint x="298" y="330"/>
                            <mxPoint x="298" y="260"/>
                            <mxPoint x="338" y="260"/>
                        </Array>
                    </mxGeometry>
                </mxCell>
                <mxCell id="107" style="edgeStyle=none;html=1;exitX=0;exitY=0.5;exitDx=0;exitDy=0;strokeColor=#000000;entryX=0.5;entryY=0;entryDx=0;entryDy=0;" parent="1" source="97" target="104" edge="1">
                    <mxGeometry relative="1" as="geometry">
                        <mxPoint x="238" y="620" as="targetPoint"/>
                        <Array as="points">
                            <mxPoint x="378" y="335"/>
                            <mxPoint x="338" y="335"/>
                            <mxPoint x="338" y="380"/>
                            <mxPoint x="338" y="410"/>
                            <mxPoint x="238" y="410"/>
                        </Array>
                    </mxGeometry>
                </mxCell>
                <mxCell id="108" style="edgeStyle=none;html=1;exitX=0;exitY=0.5;exitDx=0;exitDy=0;entryX=0.5;entryY=0;entryDx=0;entryDy=0;strokeColor=#000000;" parent="1" source="98" target="104" edge="1">
                    <mxGeometry relative="1" as="geometry">
                        <Array as="points">
                            <mxPoint x="238" y="410"/>
                        </Array>
                    </mxGeometry>
                </mxCell>
                <mxCell id="109" style="edgeStyle=none;html=1;exitX=0;exitY=0.5;exitDx=0;exitDy=0;strokeColor=#000000;" parent="1" source="99" edge="1">
                    <mxGeometry relative="1" as="geometry">
                        <mxPoint x="238" y="630" as="targetPoint"/>
                        <Array as="points">
                            <mxPoint x="238" y="475"/>
                        </Array>
                    </mxGeometry>
                </mxCell>
                <mxCell id="110" style="edgeStyle=none;html=1;exitX=0;exitY=0.5;exitDx=0;exitDy=0;entryX=0.5;entryY=0;entryDx=0;entryDy=0;strokeColor=#000000;" parent="1" source="100" target="104" edge="1">
                    <mxGeometry relative="1" as="geometry">
                        <Array as="points">
                            <mxPoint x="238" y="545"/>
                        </Array>
                    </mxGeometry>
                </mxCell>
                <mxCell id="111" style="edgeStyle=none;html=1;exitX=0;exitY=0.5;exitDx=0;exitDy=0;entryX=0.5;entryY=0;entryDx=0;entryDy=0;strokeColor=#000000;" parent="1" source="101" target="104" edge="1">
                    <mxGeometry relative="1" as="geometry">
                        <Array as="points">
                            <mxPoint x="338" y="615"/>
                            <mxPoint x="338" y="580"/>
                            <mxPoint x="238" y="580"/>
                        </Array>
                    </mxGeometry>
                </mxCell>
                <mxCell id="113" style="edgeStyle=none;html=1;exitX=1;exitY=0.5;exitDx=0;exitDy=0;entryX=0.5;entryY=0;entryDx=0;entryDy=0;strokeColor=#000000;" parent="1" source="104" target="106" edge="1">
                    <mxGeometry relative="1" as="geometry">
                        <Array as="points">
                            <mxPoint x="358" y="640"/>
                            <mxPoint x="358" y="670"/>
                            <mxPoint x="414" y="670"/>
                        </Array>
                    </mxGeometry>
                </mxCell>
                <mxCell id="131" style="edgeStyle=none;html=1;exitX=0;exitY=0.5;exitDx=0;exitDy=0;entryX=1;entryY=0.5;entryDx=0;entryDy=0;strokeColor=#000000;" edge="1" parent="1" source="130" target="6">
                    <mxGeometry relative="1" as="geometry"/>
                </mxCell>
                <mxCell id="135" style="edgeStyle=none;html=1;exitX=0.5;exitY=0;exitDx=0;exitDy=0;strokeColor=#000000;entryX=0;entryY=0.5;entryDx=0;entryDy=0;" edge="1" parent="1" source="96" target="136">
                    <mxGeometry relative="1" as="geometry">
                        <mxPoint x="558" y="180" as="targetPoint"/>
                        <Array as="points">
                            <mxPoint x="378" y="160"/>
                        </Array>
                    </mxGeometry>
                </mxCell>
            </root>
        </mxGraphModel>
    </diagram>
</mxfile>